<svg xmlns="http://www.w3.org/2000/svg" xmlns:xlink="http://www.w3.org/1999/xlink" version="1.1" x="0px" y="0px" viewBox="0 0 100 125" enable-background="new 0 0 100 100" xml:space="preserve"><path fill="#000000" d="M89.478,36.298c-2.77-1.673-10.203-2.891-14.746-0.575c-2.461,0.449-4.691-2.896-3.576-4.01  c2.958-2.958-5.571-4.584-15.403-4.913c0.979-2.417,2.024-6.038,2.024-6.645c0-0.924-0.749-2.155-1.672-2.155H48.3  c-0.924,0-1.673,1.231-1.673,2.155c0,0.606,1.041,4.213,2.019,6.63c-8.952,0.26-16.983,1.581-16.512,3.937  c1.333,6.666-6.052,9.203-8.365,15.241c-1.287-0.247-2.29-0.844-2.685-2.019c0,0-2.609-12.265-10.693-15.409  c0,0-2.153-1.026-6.786,2.299c0,0-1.954,1.63,1.048,1.934c0,0,6.65,0.604,8.084,10.273c0,0,0.875,11.938,9.792,17.587  C24.182,67.689,29,73.756,35,77.693V83h34v-4.656c4-1.944,6.441-4.503,8.807-7.497c4.875-0.285,18.899-7.612,19.993-17.269  C98.873,44.096,93.167,38.528,89.478,36.298z M94.015,53.487C93.443,59.849,83.42,66.4,81.19,65.285  c1.853-3.548,2.229-6.173,2.229-10.353c0-6.058-1.889-10.742-5.574-15.291c0.291-1.318,6.689-1.115,9.605,0.187  C90.563,41.218,94.691,45.975,94.015,53.487z"/><text x="0" y="115" fill="#000000" font-size="5px" font-weight="bold" font-family="'Helvetica Neue', Helvetica, Arial-Unicode, Arial, Sans-serif">Created by Daniel Turner</text><text x="0" y="120" fill="#000000" font-size="5px" font-weight="bold" font-family="'Helvetica Neue', Helvetica, Arial-Unicode, Arial, Sans-serif">from the Noun Project</text></svg>